<svg xmlns="http://www.w3.org/2000/svg" viewBox="0 0 507.1 11.52"><defs><style>.cls-1{fill:#62bb46;}.cls-2{fill:#b2d235;}.cls-3{fill:#ee3d96;}.cls-4{fill:#ffc20e;}.cls-5{fill:#00aeef;}.cls-6{fill:#009a4e;}.cls-7{fill:#0066b3;}.cls-8{fill:#5c2d91;}.cls-9{fill:#ed1d24;}</style></defs><title>Datový zdroj 2</title><g id="Vrstva_2" data-name="Vrstva 2"><g id="Vrstva_1-2" data-name="Vrstva 1"><path class="cls-1" d="M5.76,0H27.23a5.76,5.76,0,1,1,0,11.52H5.76A5.76,5.76,0,0,1,5.76,0"/><path class="cls-2" d="M35.66,0H151.74a5.76,5.76,0,0,1,0,11.52H35.66A5.76,5.76,0,1,1,35.66,0"/><path class="cls-3" d="M429.32,0h72a5.76,5.76,0,1,1,0,11.52h-72a5.76,5.76,0,1,1,0-11.52"/><path class="cls-3" d="M371.46,0h31.36a5.76,5.76,0,0,1,0,11.52H371.46a5.76,5.76,0,1,1,0-11.52"/><path class="cls-4" d="M286.73,0h39.44a5.76,5.76,0,0,1,0,11.52H286.73a5.76,5.76,0,1,1,0-11.52"/><path class="cls-5" d="M186.38,0h71.89a5.76,5.76,0,0,1,0,11.52H186.38a5.76,5.76,0,1,1,0-11.52"/><path class="cls-6" d="M258.27,0h28.46a5.76,5.76,0,0,1,0,11.52H258.27a5.76,5.76,0,1,1,0-11.52"/><path class="cls-7" d="M151.74,0h34.64a5.76,5.76,0,0,1,0,11.52H151.74a5.76,5.76,0,0,1,0-11.52"/><path class="cls-8" d="M402.82,0h26.5a5.76,5.76,0,0,1,0,11.52h-26.5a5.76,5.76,0,1,1,0-11.52"/><path class="cls-9" d="M326.17,0h45.29a5.76,5.76,0,1,1,0,11.52H326.17a5.76,5.76,0,1,1,0-11.52"/><path class="cls-6" d="M27.23,0h8.43a5.76,5.76,0,1,1,0,11.52H27.23A5.76,5.76,0,0,1,27.23,0"/></g></g></svg>