<svg xmlns="http://www.w3.org/2000/svg" xmlns:xlink="http://www.w3.org/1999/xlink" viewBox="0 0 146.97 49.61"><defs><style>.cls-1{isolation:isolate;}.cls-2{fill:url(#Nepojmenovaný_přechod_2);}.cls-3{fill:none;}.cls-4{clip-path:url(#clip-path);}.cls-5{mask:url(#mask);}.cls-6{clip-path:url(#clip-path-2);}.cls-7{clip-path:url(#clip-path-3);}.cls-8{fill:url(#Nepojmenovaný_přechod);}.cls-9{clip-path:url(#clip-path-4);}.cls-10{fill:#fff;}</style><linearGradient id="Nepojmenovaný_přechod_2" x1="-44.1" y1="797.8" x2="-43.1" y2="797.8" gradientTransform="translate(-17915.43 -971.72) rotate(-90) scale(22.55)" gradientUnits="userSpaceOnUse"><stop offset="0"/><stop offset="0.04" stop-color="#181818"/><stop offset="0.15" stop-color="#4d4d4d"/><stop offset="0.26" stop-color="#7d7d7d"/><stop offset="0.37" stop-color="#a5a5a5"/><stop offset="0.49" stop-color="#c6c6c6"/><stop offset="0.6" stop-color="#dfdfdf"/><stop offset="0.72" stop-color="#f1f1f1"/><stop offset="0.85" stop-color="#fcfcfc"/><stop offset="1" stop-color="#fff"/></linearGradient><clipPath id="clip-path" transform="translate(0)"><path class="cls-3" d="M73.48,0C45,0,19.16,8.57,0,22.55H147C127.82,8.57,102,0,73.48,0Z"/></clipPath><mask id="mask" x="0" y="0" width="146.97" height="22.55" maskUnits="userSpaceOnUse"><g transform="translate(0)"><rect width="146.97" height="22.55"/><g class="cls-1"><rect class="cls-2" width="146.97" height="22.55"/></g></g></mask><clipPath id="clip-path-2" transform="translate(0)"><rect class="cls-3" width="146.97" height="22.55"/></clipPath><clipPath id="clip-path-3" transform="translate(0)"><rect class="cls-3" width="146.97" height="22.55"/></clipPath><linearGradient id="Nepojmenovaný_přechod" x1="-44.1" y1="797.8" x2="-43.1" y2="797.8" gradientTransform="translate(-17915.43 -971.72) rotate(-90) scale(22.55)" gradientUnits="userSpaceOnUse"><stop offset="0" stop-color="#fff"/><stop offset="1" stop-color="#fff"/></linearGradient><clipPath id="clip-path-4" transform="translate(0)"><rect class="cls-3" width="146.97" height="49.61"/></clipPath></defs><title>Datový zdroj 1</title><g id="Vrstva_2" data-name="Vrstva 2"><g id="Vrstva_1-2" data-name="Vrstva 1"><g class="cls-4"><g class="cls-5"><g class="cls-6"><g class="cls-7"><rect class="cls-8" width="146.97" height="22.55"/></g></g></g></g><g class="cls-9"><path class="cls-10" d="M62.78,26.54c-1.37,0-2.08,1.11-2.26,2.47s-1,6.72-1.17,8c-.1.79-.16,1.62-.93,2s-1.7-.18-2.5-.86L43.3,27.41A3.58,3.58,0,0,0,41,26.54c-1.79,0-3.5,1.11-3.5,3.81V47.13a2,2,0,0,0,2,2.15,2.13,2.13,0,0,0,2.18-2s1.3-8,1.46-8.89.35-1.85,1.35-2.16,1.76.24,3,1.36S59.4,48.31,59.4,48.31a3.42,3.42,0,0,0,2.56,1c1,0,2.95-.43,2.95-3.63V28.94a2.15,2.15,0,0,0-2.13-2.4" transform="translate(0)"/><path class="cls-10" d="M138.91,44.42c-9.27,2-19.89-.14-19.89-6.7,0-4.95,4.6-7,8.23-7.26,3.8-.31,6.77.49,8.3,2.08.95,1,.69,2.34-1.19,2.45s-5,.21-7.66.31c-1.53.06-2.35.88-2.35,2,0,.87.66,1.87,2.42,1.88l12.11.06c2.11,0,3.14-1.17,3.14-3.59,0-3.82-3.47-9.64-13.62-9.64-9.2,0-15.86,4.59-15.86,12.08,0,10.62,15.63,13.86,27.09,9.92,1.08-.38,2.07-1.16,1.75-2.37s-1.15-1.49-2.47-1.2" transform="translate(0)"/><path class="cls-10" d="M31.32,44.42c-9.27,2-19.88-.14-19.88-6.7,0-4.95,4.59-7,8.22-7.26,3.8-.31,6.77.49,8.3,2.08.95,1,.69,2.34-1.19,2.45s-5,.21-7.66.31c-1.53.06-2.35.88-2.35,2,0,.87.66,1.87,2.42,1.88l12.12.06c2.1,0,3.13-1.17,3.13-3.59C34.43,31.81,31,26,20.81,26,11.61,26,5,30.58,5,38.07,5,48.69,20.58,51.93,32,48c1.08-.38,2.07-1.16,1.75-2.37s-1.15-1.49-2.47-1.2" transform="translate(0)"/><path class="cls-10" d="M103.15,34.21c.2,5.79.75,10.59.9,12.28.2,2.17,1.32,2.79,2.45,2.79s2.23-.57,2.43-2.77c.16-1.86.71-7.59,1-13.26a.33.33,0,0,0-.42-.38l-6,1a.35.35,0,0,0-.3.36" transform="translate(0)"/><path class="cls-10" d="M106.52,26a3.34,3.34,0,0,0-3.55,3.5c0,.25,0,.94.07,1.79a.37.37,0,0,0,.42.34l6.3-1a.36.36,0,0,0,.3-.35c0-.29,0-.6,0-.74A3.39,3.39,0,0,0,106.52,26" transform="translate(0)"/><path class="cls-10" d="M97.26,35.23l-12.73.06c-2,0-2.52,1.09-2.52,2s.54,1.79,2.42,1.88l8.18.41c2.26.12,2.29,1.28,1.53,2.27-1.54,2-5.27,3.31-9.15,3.31-5.07,0-10.64-2.88-10.64-7.45,0-4.28,4.77-9,19-7,1.24.17,2.47-.05,2.77-1.2S95.6,27.46,94,27A34,34,0,0,0,85.06,26c-9.54,0-17.19,4.56-17.19,11.92,0,7.85,7.62,11.7,17.12,11.7,10.61,0,15.78-5.78,15.78-10.83,0-2.57-1.31-3.55-3.51-3.55" transform="translate(0)"/></g></g></g></svg>