<svg xmlns="http://www.w3.org/2000/svg" xmlns:xlink="http://www.w3.org/1999/xlink" viewBox="0 0 335.93 113.38"><defs><style>.cls-1{fill-rule:evenodd;fill:url(#linear-gradient);}.cls-2{fill:#fff;}</style><linearGradient id="linear-gradient" x1="167.96" y1="51.54" x2="167.96" gradientUnits="userSpaceOnUse"><stop offset="0" stop-color="#fff" stop-opacity="0"/><stop offset="0.16" stop-color="#fff" stop-opacity="0.24"/><stop offset="0.32" stop-color="#fff" stop-opacity="0.47"/><stop offset="0.49" stop-color="#fff" stop-opacity="0.66"/><stop offset="0.64" stop-color="#fff" stop-opacity="0.81"/><stop offset="0.78" stop-color="#16b1ff" stop-opacity="0.91"/><stop offset="0.9" stop-color="#06acff" stop-opacity="0.98"/><stop offset="1" stop-color="#fff"/></linearGradient></defs><title>Datový zdroj 3</title><g id="Vrstva_2" data-name="Vrstva 2"><g id="logo"><path class="cls-1" d="M335.93,51.54C292.15,19.59,233,0,168,0S43.78,19.59,0,51.54Z"/><path class="cls-2" d="M143.49,60.66c-3.13,0-4.74,2.54-5.16,5.65-.46,3.44-2.26,15.35-2.67,18.37-.24,1.82-.37,3.71-2.13,4.49s-3.89-.42-5.72-2L99,62.65a8.13,8.13,0,0,0-5.36-2c-4.07,0-8,2.53-8,8.72v38.35a4.61,4.61,0,0,0,4.62,4.9,4.88,4.88,0,0,0,5-4.55s3-18.27,3.33-20.31c.42-2.37.8-4.23,3.08-4.94,2.07-.64,4,.56,7,3.11s27.2,24.48,27.2,24.48a7.81,7.81,0,0,0,5.85,2.21c2.39,0,6.73-1,6.73-8.28V66.14C148.36,62.6,146.17,60.66,143.49,60.66Z"/><path class="cls-2" d="M317.51,101.53c-21.2,4.56-45.46-.31-45.46-15.31,0-11.33,10.51-15.94,18.8-16.61,8.68-.69,15.47,1.13,19,4.76,2.18,2.27,1.57,5.36-2.71,5.61-3.95.24-11.36.47-17.52.7-3.5.13-5.37,2-5.37,4.53,0,2,1.5,4.28,5.53,4.3,5.77,0,20.42.12,27.7.14,4.8,0,7.17-2.68,7.17-8.21,0-8.75-7.94-22-31.15-22-21,0-36.24,10.48-36.24,27.6,0,24.28,35.73,31.69,61.91,22.67,2.49-.85,4.73-2.64,4-5.41C322.53,101.81,320.52,100.88,317.51,101.53Z"/><path class="cls-2" d="M71.59,101.53c-21.2,4.56-45.45-.31-45.45-15.31,0-11.33,10.51-15.94,18.79-16.61,8.68-.69,15.47,1.13,19,4.76,2.19,2.27,1.58,5.36-2.71,5.61-3.95.24-11.35.47-17.52.7-3.5.13-5.37,2-5.37,4.53,0,2,1.51,4.28,5.53,4.3,5.77,0,20.43.12,27.7.14,4.8,0,7.17-2.68,7.17-8.21,0-8.75-7.93-22-31.14-22-21,0-36.25,10.48-36.25,27.6,0,24.28,35.74,31.69,61.92,22.67,2.48-.85,4.73-2.64,4-5.41C76.61,101.81,74.6,100.88,71.59,101.53Z"/><path class="cls-2" d="M235.77,78.18c.46,13.24,1.71,24.22,2.06,28.07.45,5,3,6.38,5.6,6.38s5.09-1.29,5.54-6.34c.39-4.24,1.64-17.34,2.25-30.29a.77.77,0,0,0-1-.87l-13.8,2.23A.82.82,0,0,0,235.77,78.18Z"/><path class="cls-2" d="M243.46,59.41a7.63,7.63,0,0,0-8.1,8c0,.57.08,2.13.16,4.08a.85.85,0,0,0,.95.79l14.4-2.34a.82.82,0,0,0,.7-.79c0-.68.05-1.37.06-1.7A7.73,7.73,0,0,0,243.46,59.41Z"/><path class="cls-2" d="M222.3,80.52c-4.8,0-19.61.12-29.1.14-4.6,0-5.74,2.48-5.74,4.53,0,1.78,1.23,4.08,5.52,4.3,6.54.34,14.85.73,18.69.93,5.17.26,5.24,2.92,3.49,5.2-3.5,4.56-12,7.55-20.9,7.55-11.58,0-24.32-6.58-24.32-17,0-9.8,10.91-20.59,43.3-16,2.85.4,5.65-.11,6.35-2.75.75-2.8-1.07-4.6-4.75-5.57a78.22,78.22,0,0,0-20.43-2.39c-21.8,0-39.29,10.41-39.29,27.23,0,18,17.42,26.74,39.14,26.74,24.25,0,36.06-13.2,36.06-24.74C230.32,82.77,227.33,80.52,222.3,80.52Z"/></g></g></svg>